<svg t="1620786077990" class="icon" viewBox="0 0 1024 1024" version="1.1" xmlns="http://www.w3.org/2000/svg" p-id="9540" width="32" height="32"><path d="M337.7152 580.744533a67.857067 67.857067 0 0 0 4.983467-0.2048h109.021866v125.1328c0 36.932267 30.173867 67.310933 67.037867 67.310934a67.447467 67.447467 0 0 0 67.037867-72.362667v-120.149333h130.184533a67.3792 67.3792 0 0 0 72.021333-67.106134 67.242667 67.242667 0 0 0-72.021333-67.037866H585.728V327.406933a67.447467 67.447467 0 0 0-67.037867-72.362666 67.3792 67.3792 0 0 0-67.037866 67.310933v123.972267H337.92h-0.2048a67.242667 67.242667 0 0 0 0 134.417066z" p-id="9541" fill="#2c2c2c"></path><path d="M837.632 905.557333a493.021867 493.021867 0 0 0 73.728-74.9568 509.064533 509.064533 0 0 0 112.093867-319.010133C1023.453867 229.853867 793.8048 0 512.273067 0 230.741333 0 1.160533 229.853867 1.160533 511.5904c0 111.479467 35.976533 214.8352 96.938667 299.008 15.223467 24.1664 37.819733 50.449067 69.290667 77.960533a508.928 508.928 0 0 0 668.603733 18.432l1.706667-1.4336zM135.168 221.730133c80.964267-47.104 173.397333-72.226133 230.946133-83.694933 107.042133-21.367467 235.52 14.813867 282.760534 37.137067 80.145067 37.751467 104.721067 75.912533 146.158933 115.0976l23.552 22.391466c55.296 52.360533 111.752533 45.6704 128.341333 4.983467 26.555733 59.323733 41.3696 124.928 41.3696 193.877333a473.975467 473.975467 0 0 1-103.287466 295.662934c-78.4384 43.554133-165.888 67.106133-221.320534 78.097066-106.837333 21.2992-235.383467-14.813867-282.760533-37.137066-79.940267-37.751467-104.721067-75.912533-145.954133-114.8928l-23.620267-22.596267c-55.842133-52.770133-115.234133-46.421333-133.802667-5.597867a473.088 473.088 0 0 1-41.096533-193.467733c0-108.885333 36.864-209.442133 98.7136-289.860267z" p-id="9542" fill="#2c2c2c"></path></svg>