<svg t="1620785786854" class="icon" viewBox="0 0 1024 1024" version="1.1" xmlns="http://www.w3.org/2000/svg" p-id="8437" width="32" height="32"><path d="M975.3088 822.10816l-53.80096-52.57216-0.02048 0.01024c-33.6896 59.16672-81.5616 109.2096-139.02848 145.4592-0.06144 0.04096-0.12288 0.07168-0.18432 0.11264l50.50368 53.62688a486.668288 486.668288 0 0 0 142.53056-146.6368z" fill="#2c2c2c" p-id="8438"></path><path d="M509.83936 924.75392C281.87648 924.75392 97.08544 739.96288 97.08544 512c0-227.96288 184.80128-412.75392 412.75392-412.75392S922.59328 284.03712 922.59328 512c0 74.16832-19.57888 143.75936-53.83168 203.90912l0.02048-0.01024 53.80096 52.57216C969.13408 694.09792 996.07552 606.208 996.07552 512c0-267.34592-216.7296-484.07552-484.07552-484.07552S27.92448 244.65408 27.92448 512 244.65408 996.07552 512 996.07552c99.14368 0 191.31392-29.82912 268.06272-80.96768l-50.50368-53.62688c-63.62112 40.07936-138.96704 63.27296-219.71968 63.27296z" fill="#2c2c2c" p-id="8439"></path><path d="M785.05984 403.10784l4.46464-105.96352s-126.03392-60.78464-310.6304-60.23168c-184.59648 0.55296-255.97952 65.24928-253.7472 153.36448 2.23232 88.1152 132.73088 142.76608 221.96224 170.6496 89.23136 27.88352 157.26592 45.73184 156.14976 81.98144-1.11616 36.2496-45.86496 48.51712-91.24864 47.96416s-204.31872-30.6688-282.95168-92.57984l-3.95264 120.46336s155.648 75.84768 324.06528 70.83008c168.41728-5.0176 255.97952-73.05216 254.30016-156.14976S700.29312 497.92 593.7664 464.45568s-173.44512-53.53472-172.88192-91.46368 127.71328-72.4992 364.17536 30.11584z" fill="#2c2c2c" p-id="8440"></path></svg>